<?xml version="1.0" encoding="iso-8859-1"?>
<!-- Generator: Adobe Illustrator 19.0.0, SVG Export Plug-In . SVG Version: 6.00 Build 0)  -->
<svg version="1.1" id="Layer_1" xmlns="http://www.w3.org/2000/svg" xmlns:xlink="http://www.w3.org/1999/xlink" x="0px" y="0px"
	 viewBox="0 0 512 512" style="enable-background:new 0 0 512 512;" xml:space="preserve">
<circle style="fill:#88C5CC;" cx="256" cy="256" r="256"/>
<path style="fill:#F5F5F5;" d="M180,84h176c4.4,0,8,3.6,8,8v328c0,4.4-3.6,8-8,8H108c-4.4,0-8-3.6-8-8V168L180,84z"/>
<path style="fill:#E6E6E6;" d="M172,168c4.4,0,8-3.6,8-8V84l-80,84H172z"/>
<path style="fill:#242424;" d="M412,376c0,8.8-7.2,16-16,16H252c-8.8,0-16-7.2-16-16v-64c0-8.8,7.2-16,16-16h144c8.8,0,16,7.2,16,16
	V376z"/>
<g>
	<path style="fill:#F5F5F5;" d="M263.516,364v-34.36h6.936v13.524h13.588V329.64h6.936V364h-6.936v-15.024h-13.588V364H263.516z"/>
	<path style="fill:#F5F5F5;" d="M305.892,364v-28.548h-10.196v-5.812H323v5.812h-10.172V364H305.892z"/>
	<path style="fill:#F5F5F5;" d="M327.384,364v-34.36h10.388L344,353.08l6.164-23.432h10.408V364h-6.44v-27.048L347.304,364h-6.68
		l-6.796-27.048V364H327.384z"/>
	<path style="fill:#F5F5F5;" d="M367.648,364v-34.08h6.936v28.284h17.252V364H367.648z"/>
</g>
<g>
</g>
<g>
</g>
<g>
</g>
<g>
</g>
<g>
</g>
<g>
</g>
<g>
</g>
<g>
</g>
<g>
</g>
<g>
</g>
<g>
</g>
<g>
</g>
<g>
</g>
<g>
</g>
<g>
</g>
</svg>
